<?xml version="1.0" encoding="UTF-8" standalone="no"?>
<!DOCTYPE svg PUBLIC "-//W3C//DTD SVG 1.1//EN" "http://www.w3.org/Graphics/SVG/1.1/DTD/svg11.dtd">
<svg width="100%" height="100%" viewBox="0 0 704 716" version="1.1" xmlns="http://www.w3.org/2000/svg" xmlns:xlink="http://www.w3.org/1999/xlink" xml:space="preserve" xmlns:serif="http://www.serif.com/" style="fill-rule:evenodd;clip-rule:evenodd;stroke-linejoin:round;stroke-miterlimit:2;">
    <g transform="matrix(1,0,0,1,-134.288,-33.7796)">
        <g transform="matrix(1.3205,-0.443617,0.443617,1.3205,-455.552,-35.5973)">
            <g id="propeller" transform="matrix(0.359044,0,0,0.359044,152.409,155.317)">
                <path d="M470.409,1281.24C399.709,1435.64 291.723,1447.83 334.44,1360.85C361.877,1303.54 412.77,1264.38 417.07,1262.39C465.177,1244.81 426.983,1231.14 420.035,1227.4C323.982,1196.4 257.222,1055.63 345.377,1098.39C400.377,1124.59 428.754,1143.36 451.813,1181.99C476.529,1227.97 478.354,1191.76 487.502,1177.68C492.861,1156.65 541.726,1099.3 565.209,1086.13C658.109,1036.27 615.975,1104.43 615.975,1104.43C599.5,1128 543.5,1206 470.409,1281.24Z" style="fill:url(#_Linear1);fill-rule:nonzero;"/>
            </g>
            <g id="body" transform="matrix(0.359044,0,0,0.359044,152.409,155.317)">
                <path d="M1465.2,898.947C1672.02,994.21 1704.12,1225.26 1703.07,1284.21C1707.28,1633.68 1325.22,1702.11 1133.67,1693.68C756.87,1664.21 565.317,1557.89 490.59,1378.95C408.49,1303.16 440.07,1261.05 440.07,1261.05C440.07,1261.05 472.984,1263.54 480.07,1258.95C476.051,1242.68 477.391,1208.42 482.558,1195.98C484.471,1189.09 488.299,1185.07 495.953,1181.24C529.442,1168.23 591.635,1150.18 669.52,1141.05C682.808,1136.05 704.52,1118.82 707.41,1113.68C816.163,964.21 987.56,922.3 987.37,922.105C989.67,896.268 1019.14,874.641 1018.94,875.024C1018.75,855.885 1064.3,764.785 1178.92,768.424C1235.06,770.524 1382.47,785.998 1385.21,787.371C1385.67,789.751 1391.53,840.003 1391.53,840.003L1402.05,861.055C1402.05,861.055 1477.31,861.579 1465.2,898.947Z" style="fill:url(#_Linear2);fill-rule:nonzero;"/>
            </g>
            <g id="top_lights" transform="matrix(0.359044,0,0,0.359044,152.409,155.317)">
                <path d="M1298.91,938.947C1523.44,925.614 1562.03,1013.33 1566.24,1040C1568.35,1073.68 1522.74,1074.39 1506.6,1052.63C1469.41,991.579 1317.15,951.579 1298.91,938.947ZM1465.2,898.947C1442.84,884.21 1314.7,895.789 1237.86,878.684C1304.17,872.631 1402.05,861.052 1402.05,861.052C1402.05,861.052 1477.31,861.579 1465.2,898.947ZM479.682,1259.11C477.828,1260.72 468.069,1261.87 459.771,1261.78C473.487,1328.29 669.5,1334 703.5,1326C799.5,1308 831.5,1376 831.5,1376C831.5,1376 805.5,1296 761.5,1296C735.5,1298 472.984,1297.22 480.065,1258.95C479.944,1259 479.817,1259.06 479.682,1259.11Z" style="fill:url(#_Linear3);fill-rule:nonzero;"/>
            </g>
            <g id="bottom_lights" transform="matrix(0.359044,0,0,0.359044,152.409,155.317)">
                <path d="M987.37,922.105C990.48,895.469 1019.21,875 1019.14,875.024C1053.15,853.947 1133.14,833.158 1160.68,830.175C1295.75,827.368 1391.53,840.263 1391.53,840.263C1391.53,840.263 1402.19,861.184 1402.05,861.184C1401.91,861.184 1021.58,901.579 1021.58,901.579C1021.58,901.579 990.12,903.524 987.37,922.105ZM859.5,1430C871.077,1443.68 881.973,1464.68 877.5,1476C782.775,1484.42 599,1447.37 490.59,1378.95C408.49,1303.16 440.07,1261.05 440.07,1261.05C474.276,1408.42 745.83,1422.63 859.5,1430ZM1637.3,1504.56C1520.29,1664.24 1275.07,1699.9 1133.67,1693.68C756.87,1664.21 565.317,1557.89 490.59,1378.95C814.76,1584.21 1219.97,1709.47 1637.3,1504.56Z" style="fill:url(#_Linear4);fill-rule:nonzero;"/>
            </g>
            <g id="roof_light" transform="matrix(0.359044,0,0,0.359044,152.409,155.317)">
                <path d="M1160.51,830.526C1168.66,803.158 1167.87,806.842 1178.92,768.426C1235.06,770.526 1382.47,786 1385.21,787.373C1385.67,789.753 1391.53,840.005 1391.53,840.005C1391.53,840.005 1242.6,825.263 1160.51,830.526Z" style="fill:rgb(255,230,152);fill-rule:nonzero;"/>
            </g>
            <g id="rescope" transform="matrix(0.359044,0,0,0.359044,152.409,155.317)">
                <path d="M1140.33,771.93C1187.17,700.351 1027.5,520 1257.5,388C1319.5,352 1399.5,324 1427.5,336C1511.5,376 1498.76,700.268 1257.5,596C1181.5,556 1209.38,734.005 1216.81,771.93C1211.03,767.193 1151.12,766.93 1140.33,771.93Z" style="fill:url(#_Linear5);fill-rule:nonzero;"/>
            </g>
            <g id="recope_glass" transform="matrix(0.359044,0,0,0.359044,152.409,155.317)">
                <path d="M1411.5,366C1295.5,338 1267.5,608 1359.5,586C1461.5,572 1463.5,380 1411.5,366Z" style="fill:url(#_Linear6);fill-rule:nonzero;"/>
            </g>
            <g id="rescope_glass_light" transform="matrix(0.359044,0,0,0.359044,152.409,155.317)">
                <path d="M1402.48,382.316C1446.16,435.474 1433.39,498.105 1415.5,526C1388.66,560.737 1381.92,551.474 1393.5,532C1411.92,496.737 1443,485.474 1402.48,382.316Z" style="fill:rgb(131,220,243);fill-rule:nonzero;"/>
            </g>
            <g id="window_background" transform="matrix(0.359044,0,0,0.359044,152.409,155.317)">
                <path d="M782.2,1162.11C791.418,1185.8 789.528,1236.08 760.026,1244.94C742.304,1250.27 729.576,1233.69 724.451,1218.95C715.376,1192.84 718.607,1150.29 747.396,1138.22C765.494,1134.92 776.01,1146.18 782.2,1162.11ZM938.406,1174.74C960.456,1220.01 949.826,1306.5 892.641,1318.91C859.629,1326.08 836.166,1301.23 823.831,1273.68C802.985,1227.13 816.331,1148.94 871.591,1133.72C903.853,1128.61 924.924,1147.05 938.41,1174.74L938.406,1174.74ZM1162.32,1191.58C1185.17,1240.2 1185.23,1306.79 1157.84,1353.68C1140.88,1382.71 1113.05,1405.55 1077.88,1404.13C1035.82,1402.43 1007.17,1367.31 993.796,1330.53C968.756,1261.64 986.516,1152.03 1069.46,1133.61C1111.45,1127.8 1145.12,1154.98 1162.32,1191.58L1162.32,1191.58ZM1320.66,1122.81C1374.34,1118.6 1572.21,1122.81 1602.73,1129.12C1650.26,1140.81 1681.27,1186.75 1676.02,1229.22C1624.45,1591.32 1283.73,1537.35 1235.5,1257.16C1233.21,1236.11 1214.07,1134.29 1320.66,1122.81L1320.66,1122.81Z" style="fill:rgb(149,149,149);fill-opacity:0.8;fill-rule:nonzero;"/>
            </g>
            <g id="duke_top" transform="matrix(0.359044,0,0,0.359044,152.409,155.317)">
                <path d="M1390.76,1182.78C1309.24,1226.03 1268.67,1338.56 1267.91,1354.64C1337.18,1331.29 1422.91,1350.43 1438.99,1363.06C1444.73,1367.27 1447.03,1383.35 1447.79,1387.18C1456.21,1387.18 1460.8,1366.89 1460.8,1366.89C1460.8,1366.89 1493.12,1328.33 1495.25,1327.46C1501.26,1329.06 1519.02,1328.33 1521.66,1327.46C1538.88,1338.76 1546.92,1321.34 1536.97,1319.04C1553.42,1318.28 1546.53,1301.24 1540.41,1298.76C1549.79,1291.1 1545.19,1286.12 1539.26,1283.44C1539.26,1283.44 1517.64,1283.64 1517.26,1281.15C1517.64,1260.29 1525.1,1245.17 1493.72,1253.59C1493.72,1253.59 1501.18,1287.27 1499.84,1289C1492.38,1289.57 1488.36,1312.92 1490.08,1324.59C1490.08,1324.59 1460.99,1360.96 1458.89,1362.11C1457.55,1356.36 1446.07,1356.55 1438.41,1356.94C1439.94,1349.09 1398.04,1190.05 1390.76,1182.78Z" style="fill-rule:nonzero;"/>
            </g>
            <g id="duke_bottom" transform="matrix(0.359044,0,0,0.359044,152.409,155.317)">
                <path d="M1278.5,1373C1274.71,1366.96 1271.22,1360.91 1267.91,1354.64C1337.18,1331.29 1422.91,1350.43 1438.99,1363.06C1443.42,1366.55 1445.11,1377 1447.79,1387.18C1461.8,1440.4 1464.06,1472.62 1453.5,1480C1448.35,1483.6 1442.05,1483.09 1431.5,1481C1411.21,1476.97 1389.12,1470.26 1380.5,1466C1356.1,1453.94 1336.4,1439.92 1320.5,1425C1305.94,1411.33 1291.99,1394.49 1278.5,1373Z" style="fill-rule:nonzero;"/>
            </g>
            <g id="duke_nose" transform="matrix(0.359044,0,0,0.359044,152.409,155.317)">
                <path d="M1388.74,1311.77C1410.17,1335.77 1401.11,1378.58 1357.85,1386.39C1341.67,1389.31 1322.04,1385.15 1309.63,1374.05C1300.22,1365.67 1294.84,1353.65 1294.84,1341.05C1294.84,1327.54 1301.03,1314.76 1311.62,1306.38C1319.68,1299.93 1327.01,1297.89 1336.8,1295.71C1355.56,1293.12 1375.62,1297.09 1388.74,1311.77Z" style="fill:url(#_Linear7);fill-rule:nonzero;"/>
            </g>
            <g id="duke_nose_light" transform="matrix(0.359044,0,0,0.359044,152.409,155.317)">
                <path d="M1347.79,1332.63C1336.12,1336.85 1323.58,1322.63 1337,1313.42C1353.31,1309.21 1359.35,1328.45 1347.79,1332.63Z" style="fill-rule:nonzero;"/>
            </g>
            <g id="window_glass" transform="matrix(0.359044,0,0,0.359044,152.409,155.317)">
                <path d="M782.2,1162.11C791.418,1185.8 789.528,1236.08 760.026,1244.94C742.304,1250.27 729.576,1233.69 724.451,1218.95C715.376,1192.84 718.607,1150.29 747.396,1138.22C765.494,1134.92 776.01,1146.18 782.2,1162.11ZM938.406,1174.74C960.456,1220.01 949.826,1306.5 892.641,1318.91C859.629,1326.08 836.166,1301.23 823.831,1273.68C802.985,1227.13 816.331,1148.94 871.591,1133.72C903.853,1128.61 924.924,1147.05 938.41,1174.74L938.406,1174.74ZM1162.32,1191.58C1185.17,1240.2 1185.23,1306.79 1157.84,1353.68C1140.88,1382.71 1113.05,1405.55 1077.88,1404.13C1035.82,1402.43 1007.17,1367.31 993.796,1330.53C968.756,1261.64 986.516,1152.03 1069.46,1133.61C1111.45,1127.8 1145.12,1154.98 1162.32,1191.58L1162.32,1191.58ZM1320.66,1122.81C1374.34,1118.6 1572.21,1122.81 1602.73,1129.12C1650.26,1140.81 1681.27,1186.75 1676.02,1229.22C1624.45,1591.32 1283.73,1537.35 1235.5,1257.16C1233.21,1236.11 1214.07,1134.29 1320.66,1122.81L1320.66,1122.81Z" style="fill:url(#_Linear8);fill-rule:nonzero;"/>
            </g>
            <g id="window_glass_lights" transform="matrix(0.359044,0,0,0.359044,152.409,155.317)">
                <path d="M740.383,1149.47C726.35,1176.14 725.648,1204.91 735.472,1223.16C741.787,1236.49 750.908,1223.16 741.787,1209.12C728.455,1188.77 736.173,1176.84 740.383,1149.47ZM848.44,1158.6C812.655,1192.28 825.987,1268.07 843.528,1284.21C861.772,1299.65 860.368,1283.51 851.948,1271.58C827.39,1235.09 835.108,1183.86 848.44,1158.6ZM1023.86,1182.46C1023.86,1182.46 958.6,1256.14 1026.66,1364.21C1043.5,1390.18 1054.73,1347.37 1040.7,1331.93C974.74,1265.96 1023.86,1182.46 1023.86,1182.46ZM1616.76,1153.68C1616.76,1153.68 1712.19,1235.09 1573.96,1416.14C1553.61,1438.6 1538.18,1411.23 1561.33,1385.96C1667.99,1256.84 1630.1,1171.93 1616.76,1153.68Z" style="fill:url(#_Linear9);fill-rule:nonzero;"/>
            </g>
        </g>
    </g>
    <defs>
        <linearGradient id="_Linear1" x1="0" y1="0" x2="1" y2="0" gradientUnits="userSpaceOnUse" gradientTransform="matrix(-61.18,-346.97,346.97,-61.18,495.434,1414.88)"><stop offset="0" style="stop-color:rgb(147,114,102);stop-opacity:1"/><stop offset="1" style="stop-color:rgb(219,188,176);stop-opacity:1"/></linearGradient>
        <linearGradient id="_Linear2" x1="0" y1="0" x2="1" y2="0" gradientUnits="userSpaceOnUse" gradientTransform="matrix(1269,0,0,1269,434.094,1231.33)"><stop offset="0" style="stop-color:rgb(255,169,47);stop-opacity:1"/><stop offset="0" style="stop-color:rgb(255,169,47);stop-opacity:1"/><stop offset="1" style="stop-color:rgb(255,204,47);stop-opacity:1"/></linearGradient>
        <linearGradient id="_Linear3" x1="0" y1="0" x2="1" y2="0" gradientUnits="userSpaceOnUse" gradientTransform="matrix(3.15309e-14,-514.938,514.938,3.15309e-14,1013.06,1376)"><stop offset="0" style="stop-color:rgb(253,220,118);stop-opacity:1"/><stop offset="1" style="stop-color:rgb(255,230,153);stop-opacity:1"/></linearGradient>
        <linearGradient id="_Linear4" x1="0" y1="0" x2="1" y2="0" gradientUnits="userSpaceOnUse" gradientTransform="matrix(1203.22,0,0,1203.22,434.094,1262.06)"><stop offset="0" style="stop-color:rgb(255,120,47);stop-opacity:1"/><stop offset="0" style="stop-color:rgb(255,120,47);stop-opacity:1"/><stop offset="1" style="stop-color:rgb(251,156,64);stop-opacity:1"/></linearGradient>
        <linearGradient id="_Linear5" x1="0" y1="0" x2="1" y2="0" gradientUnits="userSpaceOnUse" gradientTransform="matrix(327.654,-438.782,438.782,327.654,1138.11,771.938)"><stop offset="0" style="stop-color:rgb(15,115,141);stop-opacity:1"/><stop offset="1" style="stop-color:rgb(5,100,124);stop-opacity:1"/></linearGradient>
        <linearGradient id="_Linear6" x1="0" y1="0" x2="1" y2="0" gradientUnits="userSpaceOnUse" gradientTransform="matrix(-128.93,-223.312,223.312,-128.93,1439.33,587.281)"><stop offset="0" style="stop-color:rgb(22,166,203);stop-opacity:1"/><stop offset="1" style="stop-color:rgb(112,214,240);stop-opacity:1"/></linearGradient>
        <linearGradient id="_Linear7" x1="0" y1="0" x2="1" y2="0" gradientUnits="userSpaceOnUse" gradientTransform="matrix(20.912,-92.34,92.34,20.912,1336.89,1387.31)"><stop offset="0" style="stop-color:rgb(197,34,76);stop-opacity:1"/><stop offset="1" style="stop-color:rgb(255,0,66);stop-opacity:1"/></linearGradient>
        <linearGradient id="_Linear8" x1="0" y1="0" x2="1" y2="0" gradientUnits="userSpaceOnUse" gradientTransform="matrix(2.22298e-14,-363.04,363.04,2.22298e-14,1198.28,1484.16)"><stop offset="0" style="stop-color:rgb(55,119,152);stop-opacity:0.46"/><stop offset="1" style="stop-color:rgb(35,179,253);stop-opacity:0.44"/></linearGradient>
        <linearGradient id="_Linear9" x1="0" y1="0" x2="1" y2="0" gradientUnits="userSpaceOnUse" gradientTransform="matrix(1.68389e-14,-275,275,1.68389e-14,1188.86,1424.47)"><stop offset="0" style="stop-color:rgb(183,209,218);stop-opacity:1"/><stop offset="1" style="stop-color:rgb(183,209,218);stop-opacity:0"/></linearGradient>
    </defs>
</svg>
