<?xml version="1.0" encoding="UTF-8" standalone="no"?>
<!DOCTYPE svg PUBLIC "-//W3C//DTD SVG 1.1//EN" "http://www.w3.org/Graphics/SVG/1.1/DTD/svg11.dtd">
<svg width="100%" height="100%" viewBox="0 0 286 255" version="1.1" xmlns="http://www.w3.org/2000/svg" xmlns:xlink="http://www.w3.org/1999/xlink" xml:space="preserve" xmlns:serif="http://www.serif.com/" style="fill-rule:evenodd;clip-rule:evenodd;stroke-linejoin:round;stroke-miterlimit:2;">
    <g transform="matrix(1,0,0,1,-571.172,-612.091)">
        <g id="Black-S" transform="matrix(2.63459,1.52108,-1.52108,2.63459,506.546,743.217)">
            <path d="M34.131,-69.19C30.371,-66.406 30.029,-62.207 31.69,-59.326C33.545,-56.152 37.744,-54.541 42.578,-57.91C47.07,-61.035 52.588,-63.037 58.496,-63.037C72.217,-63.037 82.861,-53.516 85.742,-42.188L79.443,-42.188C75.586,-42.188 74.316,-38.574 77.002,-34.961L88.916,-18.897C91.016,-16.064 94.531,-16.162 96.582,-18.897L108.545,-34.961C111.182,-38.525 110.059,-42.188 106.104,-42.188L100.195,-42.188C97.119,-61.279 80.029,-77.197 58.496,-77.197C49.17,-77.197 40.625,-73.975 34.131,-69.19ZM8.252,-35.449C5.615,-31.885 6.738,-28.223 10.693,-28.223L16.797,-28.223C19.873,-9.131 36.963,6.787 58.496,6.787C67.822,6.787 76.367,3.564 82.861,-1.221C86.621,-4.004 86.963,-8.203 85.303,-11.084C83.447,-14.258 79.248,-15.869 74.414,-12.5C69.922,-9.375 64.404,-7.373 58.496,-7.373C44.775,-7.373 34.131,-16.895 31.25,-28.223L37.353,-28.223C41.211,-28.223 42.481,-31.836 39.795,-35.449L27.881,-51.514C25.781,-54.346 22.266,-54.248 20.215,-51.514L8.252,-35.449Z" style="fill:rgb(31,159,38);fill-rule:nonzero;"/>
        </g>
    </g>
</svg>
